<svg width="22" height="22" viewBox="0 0 22 22" fill="none" xmlns="http://www.w3.org/2000/svg">
<g id="ph:facebook-logo">
<path id="Vector" d="M11 2.0625C9.23233 2.0625 7.50436 2.58668 6.0346 3.56874C4.56483 4.55081 3.41929 5.94665 2.74283 7.57977C2.06637 9.21288 1.88938 11.0099 2.23424 12.7436C2.57909 14.4773 3.43031 16.0698 4.68024 17.3198C5.93017 18.5697 7.52268 19.4209 9.25638 19.7658C10.9901 20.1106 12.7871 19.9336 14.4202 19.2572C16.0534 18.5807 17.4492 17.4352 18.4313 15.9654C19.4133 14.4956 19.9375 12.7677 19.9375 11C19.935 8.6304 18.9926 6.35856 17.317 4.683C15.6414 3.00743 13.3696 2.065 11 2.0625ZM11.6875 18.5307V13.0625H13.75C13.9323 13.0625 14.1072 12.9901 14.2361 12.8611C14.3651 12.7322 14.4375 12.5573 14.4375 12.375C14.4375 12.1927 14.3651 12.0178 14.2361 11.8889C14.1072 11.7599 13.9323 11.6875 13.75 11.6875H11.6875V9.625C11.6875 9.26033 11.8324 8.91059 12.0902 8.65273C12.3481 8.39487 12.6978 8.25 13.0625 8.25H14.4375C14.6198 8.25 14.7947 8.17757 14.9236 8.04864C15.0526 7.9197 15.125 7.74484 15.125 7.5625C15.125 7.38016 15.0526 7.2053 14.9236 7.07636C14.7947 6.94743 14.6198 6.875 14.4375 6.875H13.0625C12.3332 6.875 11.6337 7.16473 11.118 7.68046C10.6022 8.19618 10.3125 8.89565 10.3125 9.625V11.6875H8.25C8.06767 11.6875 7.8928 11.7599 7.76387 11.8889C7.63494 12.0178 7.5625 12.1927 7.5625 12.375C7.5625 12.5573 7.63494 12.7322 7.76387 12.8611C7.8928 12.9901 8.06767 13.0625 8.25 13.0625H10.3125V18.5307C8.37444 18.3538 6.57917 17.4365 5.30015 15.9697C4.02112 14.5029 3.35678 12.5995 3.44534 10.6554C3.53389 8.7113 4.36851 6.87616 5.77559 5.53172C7.18266 4.18727 9.05388 3.43702 11 3.43702C12.9461 3.43702 14.8173 4.18727 16.2244 5.53172C17.6315 6.87616 18.4661 8.7113 18.5547 10.6554C18.6432 12.5995 17.9789 14.5029 16.6999 15.9697C15.4208 17.4365 13.6256 18.3538 11.6875 18.5307Z" fill="black"/>
</g>
</svg>
