<svg width="22" height="22" viewBox="0 0 22 22" fill="none" xmlns="http://www.w3.org/2000/svg">
<g id="ph:instagram-logo">
<path id="Vector" d="M11 6.875C10.1842 6.875 9.38663 7.11693 8.70827 7.57019C8.02992 8.02345 7.50121 8.66769 7.189 9.42143C6.87679 10.1752 6.7951 11.0046 6.95426 11.8047C7.11343 12.6049 7.50629 13.3399 8.08318 13.9168C8.66008 14.4937 9.39508 14.8866 10.1953 15.0457C10.9954 15.2049 11.8248 15.1232 12.5786 14.811C13.3323 14.4988 13.9766 13.9701 14.4298 13.2917C14.8831 12.6134 15.125 11.8158 15.125 11C15.1239 9.90633 14.6889 8.85778 13.9156 8.08444C13.1422 7.3111 12.0937 6.87614 11 6.875ZM11 13.75C10.4561 13.75 9.92442 13.5887 9.47218 13.2865C9.01995 12.9844 8.66747 12.5549 8.45933 12.0524C8.25119 11.5499 8.19673 10.9969 8.30284 10.4635C8.40895 9.93005 8.67086 9.44005 9.05546 9.05546C9.44005 8.67086 9.93005 8.40895 10.4635 8.30284C10.9969 8.19673 11.5499 8.25119 12.0524 8.45933C12.5549 8.66747 12.9844 9.01995 13.2865 9.47218C13.5887 9.92442 13.75 10.4561 13.75 11C13.75 11.7293 13.4603 12.4288 12.9445 12.9445C12.4288 13.4603 11.7293 13.75 11 13.75ZM15.125 2.0625H6.875C5.59906 2.06386 4.37578 2.57133 3.47356 3.47356C2.57133 4.37578 2.06386 5.59906 2.0625 6.875V15.125C2.06386 16.4009 2.57133 17.6242 3.47356 18.5264C4.37578 19.4287 5.59906 19.9361 6.875 19.9375H15.125C16.4009 19.9361 17.6242 19.4287 18.5264 18.5264C19.4287 17.6242 19.9361 16.4009 19.9375 15.125V6.875C19.9361 5.59906 19.4287 4.37578 18.5264 3.47356C17.6242 2.57133 16.4009 2.06386 15.125 2.0625ZM18.5625 15.125C18.5625 16.0367 18.2003 16.911 17.5557 17.5557C16.911 18.2003 16.0367 18.5625 15.125 18.5625H6.875C5.96332 18.5625 5.08898 18.2003 4.44432 17.5557C3.79966 16.911 3.4375 16.0367 3.4375 15.125V6.875C3.4375 5.96332 3.79966 5.08898 4.44432 4.44432C5.08898 3.79966 5.96332 3.4375 6.875 3.4375H15.125C16.0367 3.4375 16.911 3.79966 17.5557 4.44432C18.2003 5.08898 18.5625 5.96332 18.5625 6.875V15.125ZM16.5 6.53125C16.5 6.73521 16.4395 6.93459 16.3262 7.10418C16.2129 7.27377 16.0518 7.40595 15.8634 7.484C15.675 7.56205 15.4676 7.58248 15.2676 7.54269C15.0675 7.50289 14.8838 7.40468 14.7395 7.26045C14.5953 7.11623 14.4971 6.93248 14.4573 6.73244C14.4175 6.53239 14.4379 6.32504 14.516 6.13661C14.5941 5.94817 14.7262 5.78711 14.8958 5.6738C15.0654 5.56048 15.2648 5.5 15.4688 5.5C15.7423 5.5 16.0046 5.60865 16.198 5.80205C16.3913 5.99544 16.5 6.25775 16.5 6.53125Z" fill="black"/>
</g>
</svg>
