<svg width="22" height="22" viewBox="0 0 22 22" fill="none" xmlns="http://www.w3.org/2000/svg">
<g id="typcn:social-linkedin-circular">
<path id="Vector" d="M9.19692 14.025H7.73025V9.25925H9.19692V14.025ZM8.46358 8.64783C7.93467 8.64783 7.66975 8.40308 7.66975 7.9145C7.66811 7.81645 7.68775 7.71921 7.72731 7.62948C7.76687 7.53975 7.82542 7.45967 7.89892 7.39475C8.05177 7.25214 8.25461 7.17542 8.46358 7.18117C8.9925 7.18117 9.25742 7.42683 9.25742 7.91542C9.25742 8.404 8.99342 8.64783 8.46358 8.64783ZM14.6364 14.025H13.1395V11.3667C13.1395 10.6746 12.8938 10.3281 12.4053 10.3281C12.0184 10.3281 11.7645 10.5215 11.6408 10.9083C11.6013 10.9697 11.5803 11.0926 11.5803 11.275V14.025H10.0833V10.7864C10.0833 10.0531 10.0723 9.54433 10.0531 9.25925H11.3364L11.4281 9.9C11.7645 9.39033 12.2531 9.13642 12.925 9.13642C13.4356 9.13642 13.8472 9.31425 14.1625 9.67083C14.4797 10.0274 14.6373 10.5417 14.6373 11.2145V14.025H14.6364ZM11 19.25C6.45058 19.25 2.75 15.5494 2.75 11C2.75 6.45058 6.45058 2.75 11 2.75C15.5494 2.75 19.25 6.45058 19.25 11C19.25 15.5494 15.5494 19.25 11 19.25ZM11 4.58333C7.46258 4.58333 4.58333 7.46258 4.58333 11C4.58333 14.5374 7.46258 17.4167 11 17.4167C14.5374 17.4167 17.4167 14.5374 17.4167 11C17.4167 7.46258 14.5374 4.58333 11 4.58333Z" fill="black"/>
</g>
</svg>
