<svg width="22" height="22" viewBox="0 0 22 22" fill="none" xmlns="http://www.w3.org/2000/svg">
<g id="streamline:computer-logo-youtube-youtube-clip-social-video">
<g id="Group">
<path id="Vector" d="M18.0714 3.14307H3.9285C2.19275 3.14307 0.785645 4.55017 0.785645 6.28592V15.7145C0.785645 17.4502 2.19275 18.8574 3.9285 18.8574H18.0714C19.8071 18.8574 21.2142 17.4502 21.2142 15.7145V6.28592C21.2142 4.55017 19.8071 3.14307 18.0714 3.14307Z" stroke="black" stroke-linecap="round" stroke-linejoin="round"/>
<path id="Vector_2" d="M8.34426 14.6459V8.04593C8.34098 7.9345 8.36815 7.82429 8.42286 7.72716C8.47756 7.63003 8.55772 7.54966 8.65471 7.4947C8.75169 7.43974 8.86183 7.41227 8.97327 7.41526C9.0847 7.41824 9.19321 7.45157 9.28712 7.51164L14.9443 10.8116C15.0388 10.8671 15.1172 10.9463 15.1716 11.0414C15.2261 11.1365 15.2547 11.2442 15.2547 11.3538C15.2547 11.4634 15.2261 11.5711 15.1716 11.6662C15.1172 11.7613 15.0388 11.8405 14.9443 11.8959L9.28712 15.1959C9.19115 15.2513 9.08223 15.2804 8.97141 15.2802C8.86059 15.2799 8.75181 15.2504 8.65609 15.1945C8.56036 15.1387 8.4811 15.0585 8.42634 14.9622C8.37158 14.8659 8.34326 14.7567 8.34426 14.6459Z" stroke="black" stroke-linecap="round" stroke-linejoin="round"/>
</g>
</g>
</svg>
